<svg width="571" height="517" viewBox="0 0 571 517" fill="none" xmlns="http://www.w3.org/2000/svg">
<path d="M512.944 479H16.0559C7.18848 479 0 487.507 0 498C0 508.493 7.18849 517 16.0559 517H512.944C521.812 517 529 508.493 529 498C529 487.507 521.812 479 512.944 479Z" fill="#F1F1F1"/>
<path d="M473.908 192.393C469.271 192.393 464.777 191.768 461.606 187.232C455.373 178.328 445.865 170.333 435.203 179.389C429.057 184.61 433.677 195.358 428.387 200.525C423.707 205.093 417.752 204.332 415.36 211.947C411.84 223.102 422.939 232.881 426.502 242.53C429.487 250.629 422.764 253.718 419.746 260.027C417.414 264.89 418.613 270.101 421.151 274.751C425.625 282.953 435.546 289.556 433.252 300.173C431.329 309.038 429.547 316.936 437.382 323.653C442.749 328.254 452.714 332.453 451.957 340.976C451.684 343.99 449.597 346.562 449.02 349.532C448.115 354.242 451.166 358.816 454.713 362.042C462.782 369.39 469.865 376.319 475.908 385.565C478.49 389.514 488.831 398.434 484.696 403.835C492.209 394.045 500.147 384.499 506.969 374.181C512.58 365.691 521.042 353.274 515.283 342.82C513.49 339.557 510.161 337.147 509.246 333.547C507.612 327.052 513.992 321.037 516.373 315.5C520.105 306.798 517.364 296.746 510.788 290.23C507.677 287.152 504.304 283.758 503.847 279.407C503.346 274.658 506.331 270.226 507.661 265.847C508.879 261.764 509.709 257.576 510.14 253.337C510.461 250.379 510.586 247.355 509.889 244.445C508.56 238.935 503.585 235.873 499.908 231.962C491.147 222.651 495.75 211.702 491.926 200.884C488.515 191.126 481.051 192.431 473.908 192.393Z" fill="#88B14B"/>
<path d="M487.058 379.944L486.303 379.937C484.357 355.799 479.945 329.877 473.186 302.865C466.14 274.711 459.339 252.399 451.784 232.652C448.971 225.275 445.931 218.101 442.676 211.164L443.255 210.501C446.527 217.476 449.583 224.69 452.407 232.109C459.99 251.922 466.815 274.309 473.885 302.54C480.671 329.649 485.101 355.692 487.058 379.944Z" fill="#709933"/>
<path d="M464.007 267.588C463.025 266.311 461.953 265.246 460.826 264.426C460.387 264.076 459.891 263.68 459.33 263.192C451.605 256.474 443.512 251.314 435.254 247.843L435.344 246.647C443.669 250.149 451.826 255.352 459.611 262.124C460.162 262.602 460.63 262.975 461.079 263.336C462.268 264.201 463.397 265.325 464.432 266.675L464.007 267.588Z" fill="#709933"/>
<path d="M471.442 294.968C463.03 288.075 454.072 283.884 445.12 282.651L445.078 281.422C454.135 282.669 463.196 286.909 471.705 293.884L471.442 294.968Z" fill="#709933"/>
<path d="M478.778 327.985C470.611 319.046 461.474 313.285 452.194 311.225L452.192 309.999C461.601 312.093 470.863 317.938 479.142 327.007L478.778 327.985Z" fill="#709933"/>
<path d="M464.099 266.314L463.348 266.334C462.031 252.429 462.27 238.601 464.052 225.531L464.805 225.955C463.037 238.881 462.798 252.56 464.099 266.314Z" fill="#709933"/>
<path d="M471.698 293.523L470.958 293.089C472.816 280.115 476.352 268.272 481.347 258.285L481.961 259.144C477.027 269.009 473.534 280.708 471.698 293.523Z" fill="#709933"/>
<path d="M479.921 328.446L479.163 328.293C479.126 324.325 479.477 320.459 480.202 316.838C481.059 312.562 482.409 308.74 483.717 305.183C484.69 302.55 485.7 299.904 486.723 297.357L487.376 298.126C486.36 300.676 485.351 303.299 484.382 305.923C483.093 309.416 481.763 313.177 480.924 317.347C480.225 320.857 479.886 324.602 479.921 328.446Z" fill="#709933"/>
<path d="M530.8 260.234C534.167 260.86 537.507 261.045 540.438 258.195C546.191 252.598 554.2 248.111 560.679 256.155C564.411 260.789 559.589 267.947 562.694 272.423C565.451 276.388 569.875 276.66 570.562 282.496C571.564 291.073 562.16 296.638 558.238 303.164C554.969 308.603 559.398 311.791 560.711 316.789C561.73 320.64 560.166 324.251 557.649 327.275C553.291 332.606 545.156 336.021 545.352 344.044C545.51 350.739 545.712 356.711 539.098 360.502C534.565 363.102 526.757 364.767 526.125 371.054C525.902 373.279 527.062 375.405 527.068 377.668C527.068 381.209 524.224 384.108 521.2 385.957C514.329 390.178 508.233 394.224 502.566 400.098C500.142 402.606 491.408 407.648 493.658 412.14C489.572 403.982 485.132 395.976 481.612 387.551C478.719 380.616 474.306 370.439 479.934 363.652C481.683 361.541 484.434 360.241 485.595 357.761C487.692 353.274 483.889 348.025 482.93 343.685C481.427 336.875 484.81 329.941 490.482 326.128C493.168 324.322 496.083 322.321 497.02 319.237C498.039 315.859 496.475 312.231 496.116 308.864C495.797 305.73 495.775 302.572 496.05 299.433C496.154 297.229 496.633 295.059 497.467 293.015C499.194 289.208 503.226 287.669 506.44 285.335C514.068 279.793 512.264 271.194 516.541 263.9C520.377 257.297 525.64 259.282 530.8 260.234Z" fill="#9DC264"/>
<path d="M500.515 412.098L499.62 411.962C500.94 392.009 504.401 370.926 509.908 349.302C515.645 326.785 521.262 309.112 527.575 293.69C529.934 287.913 532.498 282.342 535.254 277L535.956 277.851C533.22 283.153 530.675 288.684 528.334 294.417C522.038 309.763 516.445 327.359 510.731 349.795C505.268 371.317 501.826 392.273 500.515 412.098Z" fill="#81B03B"/>
<path d="M518.173 321.821L517.649 320.698C518.541 319.714 519.521 318.934 520.558 318.38C520.947 318.147 521.35 317.908 521.822 317.589C528.544 313.079 535.617 309.933 542.865 308.232L543 309.602C535.829 311.281 528.829 314.391 522.178 318.853C521.693 319.18 521.262 319.435 520.884 319.665C519.917 320.176 519.004 320.903 518.173 321.821Z" fill="#81B03B"/>
<path d="M512.081 343.581L511.744 342.305C519.105 337.729 526.996 335.52 534.931 335.815L534.907 337.197C527.095 336.906 519.328 339.079 512.081 343.581Z" fill="#81B03B"/>
<path d="M506.204 370.024L505.754 368.825C512.879 362.471 520.919 358.954 529.148 358.591L529.173 359.974C521.094 360.332 513.2 363.786 506.204 370.024Z" fill="#81B03B"/>
<path d="M518.772 320.745L517.88 320.575C518.795 309.318 518.363 297.898 516.605 286.88L517.477 286.553C519.262 297.732 519.701 309.322 518.772 320.745Z" fill="#81B03B"/>
<path d="M511.672 342.212C509.857 331.282 506.614 321.038 502.141 312.107L502.85 311.256C507.4 320.341 510.699 330.762 512.545 341.88L511.672 342.212Z" fill="#81B03B"/>
<path d="M505.031 370.092C504.996 366.916 504.637 363.769 503.968 360.765C503.17 357.175 501.945 353.857 500.76 350.761C499.872 348.438 498.944 346.082 498 343.824L498.759 343.088C499.698 345.376 500.628 347.72 501.52 350.059C502.729 353.215 503.979 356.605 504.804 360.314C505.501 363.457 505.874 366.749 505.909 370.071L505.031 370.092Z" fill="#81B03B"/>
<path d="M458.735 410.503H527.482L515.419 479.182H470.797L458.735 410.503Z" fill="#9D786A"/>
<path d="M450.317 410.503H535.894V391.227H450.317V410.503Z" fill="#94624F"/>
<g opacity="0.1">
<path opacity="0.1" d="M525.88 419.614H460.336L458.735 410.503H527.482L525.88 419.614Z" fill="#231F20"/>
</g>
<path d="M118.616 437.535H23.3021V446.21H118.616V437.535Z" fill="#94624F"/>
<path d="M112.78 298.389H30.592V312.465H112.78V298.389Z" fill="#94624F"/>
<path d="M136.731 288.794H6.64111V298.389H136.731V288.794Z" fill="#9D786A"/>
<path d="M133.048 479.437H122.631L102.445 312.46H112.857L133.048 479.437Z" fill="#94624F"/>
<path d="M10.3242 479.437H20.7415L40.9277 312.46H30.5104L10.3242 479.437Z" fill="#94624F"/>
<path d="M75.3721 298.389H68.0005V479.437H75.3721V298.389Z" fill="#9D786A"/>
<path d="M78.0908 225.047L78.0332 229.963L78.3871 229.967L78.4447 225.051L78.0908 225.047Z" fill="#151614"/>
<path d="M87.6637 230.401H68.8723V283.981H87.6637V230.401Z" fill="#D74034"/>
<path d="M87.6637 230.401H68.8723L70.4142 228.644H86.0564L87.6637 230.401Z" fill="#EF5132"/>
<path d="M102.341 234.008L102.283 238.924L102.637 238.929L102.695 234.012L102.341 234.008Z" fill="#151614"/>
<path d="M111.909 239.359H93.1174V283.981H111.909V239.359Z" fill="#FDCB6E"/>
<path d="M111.909 239.359H93.1174L94.6647 237.597H110.302L111.909 239.359Z" fill="#E6B458"/>
<path d="M62.563 283.981H117.837V286.004C117.837 286.701 117.559 287.369 117.066 287.862C116.572 288.355 115.903 288.631 115.205 288.631H65.2C64.5021 288.631 63.8327 288.355 63.3392 287.862C62.8457 287.369 62.5684 286.701 62.5684 286.004V283.997L62.563 283.981Z" fill="#0B2D4E"/>
<path d="M24.6807 237.771H60.3237V278.934C60.3237 281.53 59.2905 284.02 57.4513 285.856C55.6121 287.692 53.1177 288.724 50.5167 288.724H34.4877C31.8867 288.724 29.3922 287.692 27.553 285.856C25.7138 284.02 24.6807 281.53 24.6807 278.934V237.771Z" fill="#00A09D"/>
<path d="M62.8136 249.296C59.6988 249.252 56.6413 250.134 54.0298 251.829C51.4184 253.524 49.3711 255.957 48.1483 258.817C46.9255 261.677 46.5825 264.835 47.1629 267.891C47.7433 270.946 49.2209 273.76 51.4078 275.974C53.5946 278.189 56.3918 279.704 59.4437 280.327C62.4956 280.95 65.6641 280.653 68.5464 279.474C71.4286 278.294 73.8943 276.285 75.6298 273.703C77.3652 271.121 78.292 268.081 78.2924 264.972C78.3074 262.928 77.919 260.901 77.1492 259.007C76.3794 257.113 75.2433 255.388 73.8059 253.933C72.3685 252.477 70.6579 251.318 68.7718 250.523C66.8857 249.727 64.861 249.311 62.8136 249.296ZM62.8136 275.061C60.8086 275.09 58.8403 274.523 57.159 273.432C55.4778 272.342 54.1595 270.776 53.3719 268.935C52.5844 267.095 52.3631 265.062 52.7363 263.095C53.1095 261.128 54.0603 259.317 55.4677 257.891C56.8751 256.465 58.6756 255.49 60.64 255.088C62.6044 254.687 64.644 254.878 66.4994 255.637C68.3547 256.396 69.942 257.689 71.0591 259.351C72.1763 261.014 72.7729 262.97 72.7732 264.972C72.7832 266.287 72.5335 267.592 72.0384 268.811C71.5432 270.03 70.8123 271.139 69.8874 272.076C68.9625 273.013 67.8617 273.759 66.6479 274.271C65.4342 274.783 64.1312 275.052 62.8136 275.061Z" fill="#00A09D"/>
<g opacity="0.2">
<path opacity="0.2" d="M30.0146 269.388C29.504 269.388 29.0143 269.186 28.6527 268.826C28.2912 268.466 28.0874 267.978 28.0859 267.468V242.661C28.0874 242.151 28.2912 241.663 28.6527 241.303C29.0143 240.943 29.504 240.741 30.0146 240.741C30.5243 240.742 31.0126 240.945 31.373 241.305C31.7334 241.664 31.9364 242.152 31.9379 242.661V267.468C31.9364 267.977 31.7334 268.464 31.373 268.824C31.0126 269.184 30.5243 269.387 30.0146 269.388Z" fill="white"/>
</g>
<path d="M52.0967 237.771V279.722C52.0967 280.906 51.8632 282.078 51.4095 283.171C50.9559 284.265 50.2909 285.258 49.4525 286.095C48.6142 286.932 47.619 287.596 46.5237 288.049C45.4284 288.502 44.2544 288.735 43.0688 288.735H51.3013C52.4887 288.737 53.665 288.506 54.7628 288.055C55.8607 287.603 56.8585 286.94 57.6991 286.103C58.5397 285.265 59.2067 284.271 59.6617 283.176C60.1168 282.081 60.351 280.908 60.351 279.722V237.771H52.0967Z" fill="#1D7E8E"/>
<path d="M224.45 415.736H353.232C361.72 415.736 370.122 414.053 377.952 410.782C385.781 407.512 392.881 402.72 398.839 396.686C404.796 390.652 409.492 383.495 412.654 375.632C415.816 367.77 417.38 359.358 417.256 350.886L417.332 172.187C417.088 155.398 410.234 139.378 398.254 127.592C386.274 115.805 370.129 109.198 353.309 109.198H227.07C210.248 109.195 194.1 115.801 182.118 127.588C170.135 139.375 163.281 155.396 163.036 172.187L160.426 350.886C160.303 359.358 161.868 367.769 165.03 375.632C168.192 383.494 172.888 390.65 178.845 396.684C184.803 402.719 191.902 407.51 199.731 410.781C207.561 414.052 215.963 415.736 224.45 415.736Z" fill="#66BBC4"/>
<path d="M224.45 416.628H353.232C361.719 416.628 370.122 414.944 377.951 411.673C385.78 408.402 392.879 403.611 398.837 397.576C404.794 391.542 409.49 384.386 412.653 376.523C415.815 368.661 417.379 360.25 417.256 351.778C417.256 351.778 417.735 249.878 417.31 226.191C359.253 306.259 220.489 307.064 162.235 227.094C161.728 258.195 160.41 351.778 160.41 351.778C160.287 360.251 161.853 368.663 165.016 376.526C168.18 384.39 172.877 391.546 178.836 397.581C184.795 403.615 191.897 408.406 199.727 411.676C207.558 414.946 215.962 416.629 224.45 416.628Z" fill="#66A5AF"/>
<path d="M195.797 358.539H383.678C385.935 358.539 387.764 356.713 387.764 354.46V313.02C387.764 310.767 385.935 308.941 383.678 308.941H195.797C193.54 308.941 191.711 310.767 191.711 313.02V354.46C191.711 356.713 193.54 358.539 195.797 358.539Z" fill="#66BBC4"/>
<path d="M198.646 308.941H381.259C383.039 308.942 384.745 309.649 386.004 310.905C387.262 312.161 387.97 313.865 387.971 315.642H191.934C191.936 313.865 192.643 312.161 193.902 310.905C195.16 309.649 196.867 308.942 198.646 308.941Z" fill="#8ED2CC"/>
<path d="M198.423 358.539H381.052C382.832 358.537 384.538 357.831 385.797 356.575C387.055 355.318 387.763 353.615 387.764 351.838H191.711C191.712 353.615 192.42 355.318 193.678 356.575C194.937 357.831 196.643 358.537 198.423 358.539Z" fill="#66A5AF"/>
<path d="M149.181 447.021L432.522 447.021V421.996L149.181 421.996V447.021Z" fill="#94624F"/>
<path d="M432.288 458.949C435.71 450.759 431.833 441.351 423.629 437.935C415.425 434.52 406.001 438.39 402.58 446.579C399.158 454.769 403.035 464.177 411.238 467.593C419.442 471.009 428.866 467.139 432.288 458.949Z" fill="#94624F"/>
<path d="M419.725 478.453C425.036 477.211 428.334 471.906 427.09 466.603C425.846 461.301 420.532 458.009 415.22 459.25C409.908 460.492 406.611 465.797 407.855 471.1C409.098 476.402 414.413 479.694 419.725 478.453Z" fill="#94624F"/>
<path d="M167.784 468.701C176.353 466.343 181.385 457.497 179.023 448.943C176.661 440.388 167.799 435.365 159.23 437.723C150.661 440.081 145.629 448.927 147.991 457.481C150.353 466.036 159.214 471.059 167.784 468.701Z" fill="#94624F"/>
<path d="M153.61 469.31C153.61 471.26 154.19 473.167 155.275 474.788C156.36 476.41 157.903 477.674 159.708 478.42C161.513 479.167 163.499 479.362 165.415 478.981C167.331 478.601 169.091 477.662 170.473 476.283C171.854 474.904 172.795 473.146 173.176 471.234C173.557 469.321 173.362 467.338 172.614 465.536C171.867 463.734 170.6 462.194 168.976 461.111C167.352 460.027 165.442 459.449 163.488 459.449C160.868 459.449 158.356 460.488 156.504 462.337C154.651 464.186 153.61 466.695 153.61 469.31Z" fill="#94624F"/>
<path d="M168.19 229.656C168.931 233.001 183.097 295.376 183.761 300.276C184.426 305.177 183.538 320.634 183.565 317.882C183.593 315.13 183.353 323.713 188.752 322.864C191.476 322.44 212.006 315.821 232.884 312.53C253.762 309.24 275.054 309.267 277.108 308.908C281.211 308.168 282.665 305.938 284.049 299.591C285.433 293.244 276.176 267.599 274.738 259.299C273.3 250.999 272.559 219.828 271.6 215.754C270.336 210.358 265.133 208.683 260.703 209.271C258.153 209.613 232.007 215.09 211.592 217.859C191.433 220.578 177.033 220.578 174.924 220.883C170.653 221.454 167.455 226.311 168.19 229.656Z" fill="#00A09D"/>
<path d="M168.561 229.607C169.318 232.952 183.484 295.31 184.132 300.205C184.78 305.101 183.903 320.564 183.936 317.812C183.969 315.059 183.718 323.642 189.117 322.794C191.814 322.369 212.371 315.723 233.249 312.46C254.127 309.196 275.419 309.196 277.473 308.832C281.576 308.097 283.036 305.867 284.414 299.52C285.041 296.637 283.477 289.773 281.445 282.366C237.564 304.731 180.988 299.395 180.384 220.54C177.659 220.66 175.911 220.725 175.273 220.807C171.018 221.405 167.82 226.235 168.561 229.607Z" fill="#1D7E8E"/>
<path d="M143.166 262.47H172.26C177.424 262.47 182.376 264.517 186.027 268.161C189.679 271.806 191.731 276.749 191.732 281.903V359.436H387.786V281.903C387.788 276.749 389.84 271.806 393.491 268.161C397.143 264.517 402.095 262.47 407.258 262.47H436.353C441.516 262.47 446.468 264.517 450.12 268.161C453.771 271.806 455.824 276.749 455.825 281.903V359.436L451.347 415.736H128.15L123.672 359.436V281.903C123.672 279.349 124.177 276.82 125.158 274.461C126.138 272.102 127.574 269.958 129.385 268.154C131.195 266.349 133.344 264.918 135.709 263.943C138.073 262.967 140.607 262.467 143.166 262.47Z" fill="#66BBC4"/>
<path d="M145.607 432.716H434.315C438.826 432.716 443.153 430.927 446.343 427.743C449.533 424.558 451.325 420.239 451.325 415.735H128.597C128.597 420.239 130.389 424.558 133.579 427.743C136.769 430.927 141.096 432.716 145.607 432.716Z" fill="#66A5AF"/>
<path d="M416.886 172.187C416.373 137.253 382.082 92.234 311.683 92.234H265.999C197.214 92.234 163.025 136.877 163.025 172.187C229.964 154.723 210.202 199.464 289.727 199.464C369.251 199.464 357.03 159.841 416.886 172.187Z" fill="#8ED2CC"/>
<path d="M474.191 291.678C477.951 267.954 461.734 245.68 437.969 241.926C414.204 238.173 391.891 254.363 388.132 278.087C384.372 301.811 400.589 324.085 424.354 327.838C448.119 331.592 470.432 315.402 474.191 291.678Z" fill="#66BBC4"/>
<path d="M449.778 296.287C456.062 286.046 452.84 272.659 442.581 266.385C432.323 260.112 418.913 263.329 412.629 273.57C406.345 283.81 409.567 297.198 419.825 303.471C430.084 309.744 443.494 306.528 449.778 296.287Z" fill="#8ED2CC"/>
<path d="M179.095 315.642C196.108 298.658 196.108 271.122 179.095 254.138C162.081 237.154 134.498 237.154 117.484 254.138C100.471 271.122 100.471 298.658 117.484 315.642C134.498 332.626 162.081 332.626 179.095 315.642Z" fill="#66BBC4"/>
<path d="M165.618 298.1C172.911 288.549 171.068 274.904 161.501 267.623C151.934 260.342 138.266 262.182 130.972 271.733C123.679 281.283 125.522 294.928 135.089 302.209C144.656 309.49 158.324 307.65 165.618 298.1Z" fill="#8ED2CC"/>
<path d="M282.349 145.841C282.349 147.347 282.797 148.819 283.635 150.071C284.473 151.324 285.664 152.3 287.058 152.876C288.452 153.452 289.986 153.603 291.465 153.309C292.945 153.015 294.304 152.29 295.371 151.225C296.438 150.16 297.164 148.804 297.458 147.326C297.753 145.849 297.602 144.318 297.024 142.927C296.447 141.536 295.469 140.346 294.215 139.51C292.961 138.673 291.486 138.226 289.977 138.226C287.954 138.226 286.014 139.029 284.584 140.457C283.153 141.885 282.349 143.821 282.349 145.841Z" fill="#66A5AF"/>
<path d="M353.881 168.097C343.104 172.487 329.521 171.159 320.008 164.404C310.496 157.649 301.675 152.623 289.525 152.259C281.979 152.036 274.907 155.191 267.732 156.985C261.412 158.568 256.584 163.637 249.752 164.567C240.795 165.797 231.598 160.298 227.572 152.221C223.545 144.144 224.423 134.087 228.928 126.26C232.197 120.549 235.243 116.291 231.549 109.943C230.743 108.556 229.729 107.273 229.179 105.766C228.704 104.325 228.519 102.803 228.634 101.29C228.967 93.0389 235.227 86.8548 239.395 80.0451C240.37 78.4515 241.351 76.7817 241.645 74.9542C242.397 70.2658 238.659 66.2137 236.671 61.9006C230.225 47.9223 241.225 32.0241 251.926 23.6371C258.241 18.6876 265.814 16.6915 272.63 12.6612C275.735 10.8228 278.563 8.5493 281.701 6.77619C287.15 3.68683 293.143 3.55629 299.223 4.40478C316.543 6.83058 336.234 19.3947 340.244 37.4848C342.968 49.7444 338.511 64 350.677 72.5828C354.344 75.1663 358.97 76.7056 361.47 80.4258C366.783 88.3342 358.981 100.044 363.835 108.236C364.925 110.063 366.559 111.499 368.008 113.033C371.881 117.109 374.839 121.963 376.684 127.27C378.53 132.578 379.22 138.217 378.709 143.812C378.442 146.532 377.864 149.278 376.53 151.661C374.683 154.924 371.55 157.241 368.488 159.422C363.906 162.685 359.226 165.911 354.028 168.059L353.881 168.097Z" fill="#0B2D4E"/>
<path d="M227.37 134.104C226.4 131.177 228.106 128.577 229.751 126.07C230.432 125.087 231.043 124.059 231.582 122.992C232.173 121.679 232.47 120.253 232.452 118.814C232.434 117.375 232.102 115.957 231.478 114.659C230.702 113.247 229.76 111.933 228.672 110.743C227.602 109.561 226.658 108.27 225.856 106.892C224.999 105.269 224.522 103.474 224.46 101.641C224.398 99.8081 224.752 97.9848 225.496 96.3078C226.972 93.0444 229.746 90.7601 232.426 88.5246C232.971 88.0514 233.565 87.5782 234.121 87.0942C236.414 85.1035 241.541 79.7896 239.569 73.4096C238.72 70.9767 237.625 68.6367 236.3 66.4259C235.837 65.5937 235.363 64.7289 234.916 63.8696C232.247 58.7025 230.83 53.7149 230.688 49.0483C230.525 43.4733 232.296 38.1703 235.543 34.4445C238.354 31.2355 242.168 29.2013 246.156 27.227C247.246 26.6903 248.336 26.1573 249.425 25.6279C254.176 23.3054 259.085 20.9123 263.629 18.0677C266.68 16.1531 269.377 14.3963 271.524 12.2044C272.096 11.6224 272.646 11.0241 273.158 10.4422C274.706 8.75064 276.307 6.99928 278.508 5.65584C285.368 1.48412 294.63 0.0536614 304.53 1.60378C313.83 3.07231 322.646 7.01016 328.715 12.422C329.445 13.0747 330.159 13.76 330.829 14.467C336.277 20.1562 339.759 26.9768 340.396 33.1555C341.039 39.4593 341.148 45.6271 341.17 50.8377C341.17 51.9255 341.137 53.0133 341.105 54.0141C341.001 57.2775 340.908 60.1112 342.085 63.3311C343.938 68.3785 346.286 71.4352 349.479 72.9527C350.987 73.6006 352.567 74.0662 354.186 74.3397C355.46 74.5842 356.718 74.9094 357.951 75.3133C360.83 76.3667 363.335 78.2423 365.155 80.7065C366.974 83.1707 368.027 86.1146 368.183 89.1719C368.314 92.4679 367.371 95.6497 366.456 98.7228C366.053 100.093 365.633 101.508 365.317 102.895C363.966 108.877 364.5 117.036 370.063 121.784L369.142 122.872C363.1 117.694 362.489 109.002 363.933 102.595C364.26 101.159 364.685 99.7235 365.094 98.3366C366.014 95.2309 366.886 92.2993 366.766 89.2371C366.621 86.4698 365.667 83.8056 364.02 81.5744C362.374 79.3431 360.109 77.6428 357.504 76.6839C356.33 76.3024 355.132 75.9954 353.919 75.7647C352.192 75.4647 350.506 74.9626 348.896 74.269C344.232 72.0553 342.031 67.2635 340.783 63.8533C339.535 60.443 339.606 57.2829 339.693 54.0032C339.726 52.997 339.759 51.9581 339.759 50.8812C339.759 45.7087 339.628 39.579 338.991 33.3404C338.386 27.4554 335.041 20.9503 329.81 15.4787C329.162 14.8043 328.481 14.1461 327.772 13.5152C316.331 3.34426 293.649 -1.88263 279.282 6.8905C277.255 8.13059 275.79 9.72966 274.237 11.4266C273.692 12.014 273.147 12.6232 272.553 13.2215C270.298 15.5222 267.525 17.3334 264.381 19.2914C259.777 22.1741 254.83 24.589 250.046 26.9061L246.777 28.4997C242.925 30.4088 239.248 32.3668 236.605 35.3855C233.592 38.8229 231.947 43.7888 232.105 49.0102C232.236 53.4702 233.603 58.2565 236.169 63.2223C236.605 64.0708 237.079 64.9248 237.537 65.7515C238.908 68.0454 240.036 70.4751 240.904 73.0017C242.446 78.0545 240.294 83.5806 235.003 88.1711C234.459 88.6552 233.865 89.1392 233.282 89.6179C230.726 91.75 228.084 93.9691 226.744 96.9007C226.088 98.3786 225.776 99.9854 225.831 101.601C225.886 103.216 226.306 104.798 227.06 106.229C227.816 107.521 228.705 108.732 229.713 109.84C230.878 111.112 231.883 112.523 232.704 114.039C233.43 115.523 233.818 117.149 233.839 118.801C233.859 120.453 233.513 122.088 232.824 123.59C232.259 124.722 231.614 125.812 230.895 126.853C229.364 129.181 227.915 131.384 228.672 133.663L227.37 134.104Z" fill="#0B2D4E"/>
<path d="M351.075 287.821C349.687 291.488 347.867 294.977 345.654 298.215C335.019 313.95 322.313 324.714 309.695 331.648C298.444 337.843 286.648 337.566 275.141 335.162C267.274 333.53 259.445 328.347 251.855 323.55C243.481 318.354 235.823 312.088 229.076 304.91C223.344 298.748 218.179 291.106 217.334 276.551C216.991 270.824 217.585 264.488 219.65 260.604C222.14 255.927 225.905 256.084 229.261 256.634C248.276 259.756 266.686 273.342 285.831 273.592C296.515 273.734 306.48 267.838 316.745 262.508C324.667 258.396 333.461 253.876 341.709 254.735C349.201 255.519 356.594 273.07 351.075 287.821Z" fill="#0B2D4E"/>
<path d="M233.87 253.745C233.429 252.739 232.977 251.717 232.508 250.661C227.572 239.647 223.971 228.083 221.78 216.216C220.99 211.941 220.184 207.269 216.915 204.397C212.387 200.432 203.572 200.943 197.966 201.678C195.35 202.026 192.61 202.929 191.03 205.039C188.409 208.542 188.671 216.461 188.567 220.665C187.941 246.316 208.252 267.517 224.788 284.846C227.975 288.18 231.429 291.547 235.842 292.895C240.256 294.244 245.857 292.841 247.785 288.658C249.202 285.591 248.33 281.985 247.24 278.792C245.312 273.31 242.408 268.284 239.106 263.519C237.047 260.439 235.293 257.165 233.87 253.745Z" fill="#F8A17A"/>
<path d="M331.058 114.365C331.796 118.83 331.169 123.413 329.26 127.517C323.959 138.531 310.834 140.674 299.768 141.114C295.665 141.283 291.555 141.066 287.493 140.467C283.881 139.923 280.661 140.467 277.005 140.396C269.734 140.234 262.643 138.102 256.492 134.229C253.528 132.347 250.733 129.97 249.213 126.81C247.115 122.459 247.725 117.324 248.831 112.63C249.391 109.897 250.348 107.261 251.67 104.804C253.163 102.22 255.304 100.028 256.574 97.3194C258.911 92.2285 256.988 86.2782 259.069 81.2852C260.703 77.3746 264.784 72.9581 268.179 70.516C272.799 67.1873 278.759 66.1648 284.436 66.5237C290.114 66.8827 295.622 68.6232 301.032 70.3854C305.298 71.7778 308.959 70.9293 312.087 74.4321C314.566 77.2168 313.721 81.7639 314.489 85.1415C317.143 96.4927 329.265 102.486 331.058 114.365Z" fill="#061F33"/>
<path d="M252.678 164.774C245.448 177.148 237.302 189.027 229.522 201.063C225.164 207.786 220.805 214.617 218.451 222.275C207.723 222.009 196.963 219.746 186.426 217.734C188.12 203.527 195.633 190.653 202.351 178.268C209.352 165.372 216.893 152.765 223.48 139.651C228.836 128.98 238.839 116.264 252.215 122.665C262.512 127.598 260.932 141.734 258.785 150.856C257.647 155.74 255.288 160.314 252.678 164.774Z" fill="#D74034"/>
<path d="M333.711 253.745C334.158 252.739 334.605 251.717 335.079 250.661C340.012 239.646 343.613 228.082 345.807 216.216C346.597 211.941 347.397 207.269 350.672 204.397C355.194 200.432 364.009 200.943 369.616 201.678C372.236 202.026 374.977 202.929 376.557 205.039C379.178 208.542 378.916 216.461 379.02 220.665C379.646 246.316 359.335 267.517 342.794 284.846C339.612 288.18 336.157 291.547 331.744 292.895C327.331 294.244 321.73 292.841 319.801 288.658C318.385 285.591 319.257 281.985 320.346 278.792C322.275 273.31 325.179 268.284 328.481 263.519C330.538 260.439 332.29 257.165 333.711 253.745Z" fill="#F8A17A"/>
<path d="M314.914 164.774C322.144 177.148 330.284 189.027 338.064 201.063C342.423 207.786 346.782 214.617 349.141 222.275C359.869 222.009 370.624 219.746 381.161 217.734C379.466 203.527 371.959 190.653 365.241 178.268C358.24 165.372 350.699 152.765 344.112 139.651C338.756 128.98 328.753 116.264 315.372 122.665C305.08 127.598 306.655 141.734 308.834 150.856C309.94 155.74 312.294 160.314 314.914 164.774Z" fill="#D74034"/>
<path d="M337.389 265.597C334.403 257.683 329.914 251.211 327.337 243.031C323.839 231.935 321.452 216.108 325.473 204.62C329.734 192.421 334.97 182.799 335.28 169.212C335.553 157.578 333.204 146.118 330.867 134.789C328.557 123.568 327.506 120.31 316.5 118.597C312.577 117.988 308.703 116.927 304.786 116.231C298.145 115.079 291.416 114.506 284.676 114.518H284.131C277.389 114.506 270.659 115.079 264.016 116.231C260.104 116.927 256.23 117.988 252.307 118.597C241.296 120.31 240.25 123.568 237.935 134.789C235.597 146.118 233.249 157.578 233.521 169.212C233.843 182.81 239.073 192.421 243.328 204.62C247.344 216.108 244.963 231.935 241.46 243.031C238.883 251.189 234.377 257.683 231.413 265.597C231.116 266.198 231.017 266.878 231.13 267.539C231.358 268.366 232.165 268.85 232.906 269.236C247.535 276.85 263.961 279.162 279.969 280.342C281.374 280.446 282.747 280.544 284.098 280.631V280.669H284.382H284.665V280.625C286.022 280.538 287.389 280.44 288.8 280.337C304.835 279.157 321.229 276.861 335.858 269.23C336.599 268.844 337.405 268.36 337.634 267.533C337.757 266.878 337.672 266.201 337.389 265.597Z" fill="#EF5132"/>
<path d="M319.251 120.952C319.927 118.863 322.488 114.213 321.196 112.385C319.905 110.558 315.083 110.95 313.198 111.009L251.125 113.103C252.318 117.531 252.367 121.664 254.073 126.043C255.498 129.776 257.456 133.284 259.886 136.459C264.732 142.8 271.722 147.165 279.555 148.74C292.881 151.351 307.608 144.856 314.359 133.086C316.533 129.29 317.895 125.102 319.251 120.952Z" fill="#EF5132"/>
<path d="M268.903 136.399C275.387 143.758 287.847 144.34 296.564 141.332C302.503 139.281 306.698 134.609 306.823 128.186C306.965 121.001 300.656 115.899 299.06 109.209C298.155 105.402 298.242 101.502 298.335 97.6458C298.449 93.1369 298.477 88.617 298.695 84.119C294.492 83.1382 290.176 82.7284 285.864 82.9006C281.935 83.0638 278.013 82.6504 274.09 82.9006C273.774 82.8823 273.462 82.9746 273.207 83.1617C273.012 83.3983 272.909 83.698 272.918 84.0048C272.374 90.091 272.918 96.2534 272.494 102.345C272.118 107.947 270.859 113.588 267.59 118.227C263.575 123.867 264.555 131.466 268.903 136.399Z" fill="#F8A17A"/>
<path d="M280.829 18.8889C284.133 17.241 287.757 16.3315 291.448 16.2238C295.138 16.1075 298.827 16.488 302.416 17.3551C309.686 18.9689 316.347 22.6134 321.621 27.8633C326.973 33.1066 330.472 39.9443 331.592 47.3458C332.098 51.0444 331.919 54.7375 331.995 58.3762C332.071 62.0149 332.355 65.6916 333.858 68.9115C335.362 72.1314 338.026 74.7258 340.941 76.8253C343.856 78.9248 347.131 80.6326 350.274 82.5852C351.816 83.5534 353.483 84.5596 354.633 86.1858C355.782 87.8121 356.028 89.8354 356.055 91.6792C356.079 93.556 355.841 95.4269 355.347 97.2379C354.796 99.0046 354.118 100.73 353.32 102.4C352.555 104.008 352.215 105.785 352.334 107.561C352.544 109.345 353.058 111.079 353.854 112.69C355.407 115.954 357.324 119.124 358.904 122.448C360.571 125.748 361.612 129.327 361.977 133.005C362.31 136.685 361.851 140.394 360.632 143.883C361.758 140.391 362.129 136.7 361.721 133.054C361.274 129.438 360.166 125.936 358.452 122.72C356.818 119.456 354.889 116.334 353.265 113.016C352.42 111.342 351.867 109.536 351.631 107.675C351.48 105.779 351.814 103.876 352.601 102.144C353.365 100.497 354.01 98.7978 354.529 97.0584C354.99 95.3254 355.208 93.5372 355.178 91.7445C355.178 89.966 354.889 88.1493 353.897 86.7624C352.906 85.3754 351.353 84.3855 349.806 83.4337C346.695 81.5355 343.415 79.8439 340.385 77.6792C337.356 75.5145 334.588 72.8385 332.938 69.401C331.287 65.9636 331.08 62.1073 331.02 58.4469C330.96 54.7864 331.156 51.1042 330.676 47.5253C329.707 40.3458 326.133 33.6504 321.071 28.4888C315.945 23.2656 309.44 19.5995 302.312 17.9153C298.776 16.9755 295.129 16.5162 291.47 16.5502C287.795 16.5479 284.164 17.346 280.829 18.8889Z" fill="#73B8D4"/>
<path d="M298.804 108.306C298.095 104.776 298.166 101.165 298.259 97.5914C298.368 93.0879 298.4 88.5681 298.618 84.07C294.416 83.0896 290.1 82.6798 285.787 82.8517C281.859 83.0094 277.936 82.6015 274.014 82.8517C273.698 82.8386 273.388 82.9304 273.131 83.1128C272.933 83.3505 272.831 83.6526 272.842 83.9612C272.297 90.0421 272.842 96.2045 272.417 102.302C272.304 104.05 272.084 105.79 271.758 107.512C272.374 108.056 273 108.567 273.648 109.046C276.092 110.822 278.905 112.025 281.878 112.565C284.851 113.106 287.908 112.97 290.822 112.168C293.685 111.347 296.385 110.041 298.804 108.306Z" fill="#E5785C"/>
<path d="M315.334 59.9589C315.288 54.4179 314.399 48.9161 312.697 43.6419C305.772 23.4523 280.355 18.8019 265.296 33.5797C248.51 50.0599 255.582 88.7857 273.703 102.166C276.146 103.941 278.959 105.144 281.932 105.685C284.906 106.225 287.963 106.09 290.876 105.288C308.447 100.344 315.726 78.5984 315.334 59.9589Z" fill="#F8A17A"/>
<path d="M315.334 42.4399C309.885 21.8097 284.867 15.3482 268.789 29.0055C266.222 31.1811 264.43 33.7864 262.616 36.5657C261.063 38.9208 258.9 40.7048 257.532 43.2992C256.125 45.9726 255.25 48.8928 254.955 51.8983C254.672 54.8191 255.631 57.37 255.702 60.1711C255.674 58.7037 255.962 57.2475 256.547 55.9009C257.131 54.5544 257.999 53.3489 259.091 52.3661C260.796 50.854 262.948 49.9675 264.931 48.847C266.914 47.7266 268.859 46.22 269.606 44.0662C276.002 52.4368 285.951 54.9986 295.692 57.4189C303.865 59.4422 312.877 64.5984 313.062 74.1548C313.066 75.2284 313.281 76.2908 313.694 77.2822C314.211 75.9971 314.534 74.6426 314.653 73.2628C314.827 71.7018 315.279 70.1517 315.584 68.5961C316.217 65.3908 316.619 62.1445 316.788 58.882C317.141 53.3594 316.651 47.8153 315.334 42.4399Z" fill="#E5785C"/>
<path d="M319.976 77.8641C321.606 76.5813 322.841 74.8659 323.539 72.9146C325.719 66.5074 325.49 59.4095 325.223 52.54C325.07 48.7327 324.918 44.8275 323.866 41.1779C322.672 37.2858 320.667 33.6899 317.982 30.6263C310.572 21.8749 299.507 17.4312 288.871 18.3395C284.6 18.7039 281.462 20.749 277.708 22.4786C274.046 24.1756 269.742 25.1057 265.89 26.373C261.444 27.836 256.873 29.3698 253.359 32.4429C250.821 34.7544 248.84 37.6084 247.562 40.7918C245.927 44.561 245.797 48.749 246.254 52.7576C246.636 56.07 247.071 59.6053 248.543 62.6947C249.921 65.5882 252.988 67.481 255.734 68.9223C255.326 68.7102 255.68 63.9293 255.669 63.1951C255.609 58.9744 255.838 54.6395 257.162 50.6037C258.442 46.655 260.976 44.2401 264.245 41.8306C265.595 40.9008 266.847 39.8365 267.982 38.6542C268.527 38.0505 270.935 35.2494 270.543 34.3846C272.412 38.4965 275.338 42.7172 278.999 45.4149C285.951 50.5385 293.709 54.1609 301.544 57.2121C302.122 57.4351 302.705 57.6581 303.282 57.892C305.462 58.7568 307.57 59.7413 309.341 61.3512C313.302 64.9519 313.591 70.4779 313.443 75.46C313.395 76.0083 313.445 76.5608 313.591 77.0917C314.43 79.5447 318.391 79.0661 319.976 77.8641Z" fill="#0B2D4E"/>
<path d="M210.551 197.963L209.287 200.944H359.596L358.087 197.593L210.551 197.963Z" fill="#B8D1CE"/>
<path d="M349.223 295.762H219.606L210.344 199.426C210.302 199.021 210.346 198.612 210.472 198.224C210.597 197.837 210.803 197.48 211.074 197.177C211.346 196.873 211.678 196.63 212.05 196.462C212.421 196.293 212.824 196.205 213.232 196.201H355.652C356.059 196.205 356.462 196.293 356.833 196.461C357.204 196.63 357.536 196.873 357.807 197.177C358.079 197.481 358.283 197.838 358.409 198.225C358.534 198.612 358.576 199.021 358.534 199.426L349.223 295.762Z" fill="#B8D1CE"/>
<path d="M358.92 295.5H214.5L209.156 202.151C209.117 201.743 209.163 201.331 209.293 200.942C209.422 200.553 209.631 200.195 209.907 199.891C210.183 199.587 210.52 199.345 210.895 199.178C211.271 199.012 211.677 198.926 212.088 198.926H356.742C357.152 198.926 357.558 199.012 357.933 199.178C358.308 199.345 358.645 199.587 358.92 199.891C359.196 200.195 359.405 200.553 359.533 200.942C359.662 201.331 359.708 201.743 359.667 202.151L358.92 295.5Z" fill="white"/>
<path d="M351.572 295H220V300.847H351.572V295Z" fill="#B8D1CE"/>
<path d="M293.634 256.49V255.266H293.592C292.86 256.17 291.904 256.622 290.724 256.622C289.808 256.607 288.98 256.262 288.241 255.587C287.438 254.927 287.029 253.951 287.015 252.66V251.259C286.758 251.46 286.485 251.639 286.199 251.795C285.544 252.169 284.786 252.363 283.925 252.379C282.618 252.379 281.471 251.919 280.485 250.999C279.461 250.079 278.935 248.59 278.908 246.533C278.937 244.452 279.463 242.945 280.486 242.011C281.476 241.091 282.624 240.639 283.931 240.655C284.791 240.67 285.548 240.853 286.202 241.205C286.378 241.302 286.215 241.187 286.378 241.302L285.421 243.227C285.103 243.095 284.391 242.927 284.013 242.947C282.208 243.045 281.161 244.115 281.133 246.533C281.164 248.937 282.012 249.948 284.014 250.086C285.014 250.154 285.608 249.743 286.134 249.064C286.15 249.043 286.166 249.02 286.183 248.998C286.813 247.889 286.978 246.354 287.013 245.891V232C279.742 232.506 274 238.573 274 245.982C274.002 253.724 280.269 259.999 288.001 259.999C289.94 260.001 291.859 259.599 293.634 258.816V256.49Z" fill="#88B14B"/>
<path d="M302 245.982C302 238.659 296.39 232.647 289.238 232.021V251.868C289.238 252.641 289.448 253.245 289.867 253.679C290.28 254.114 290.806 254.331 291.446 254.331C292.086 254.331 292.608 254.114 293.014 253.68C293.427 253.246 293.633 252.643 293.633 251.869V245.045H295.856V257.585C297.749 256.301 299.3 254.572 300.371 252.55C301.442 250.527 302.001 248.272 302 245.982Z" fill="#88B14B"/>
<path d="M268.898 341.107C274.918 340.019 280.884 338.844 286.877 337.843C316.723 332.883 347.844 327.052 374.95 313.09C381.199 309.86 387.699 304.78 390.941 298.443C399.446 281.767 382.463 266.119 365.878 270.851C338.173 278.754 314.119 295.871 287.547 307.053C283.112 308.913 278.645 310.86 274.155 312.824C270.303 314.505 266.429 316.191 262.545 317.844" fill="#0B2D4E"/>
<path d="M262.523 317.855C258.077 319.742 253.615 321.575 249.142 323.294C244.565 325.045 218.086 330.876 223.976 340.857C225.136 342.815 227.697 343.326 229.969 343.614C242.969 345.246 256.001 343.418 268.908 341.112" fill="#F8A17A"/>
<path d="M239.542 344.261C233.815 344.914 227.822 344.713 222.505 345.023C220.107 345.159 217.705 345.3 215.307 345.279C211.495 345.181 207.69 344.881 203.909 344.381L195.65 343.435C194.152 343.266 192.582 343.07 191.335 342.222C189.842 341.21 189.074 339.459 188.371 337.8C186.987 334.504 185.222 331.328 184.181 327.901C183.5 325.655 182.764 323.446 184.279 321.374C185.069 320.384 186.026 319.539 187.107 318.878C188.432 317.942 189.866 317.171 191.378 316.582C196.385 314.749 201.033 316.707 205.718 318.502C210.671 320.406 215.596 322.462 220.783 323.653C226.362 324.937 232.105 325.181 237.804 325.54C242.353 325.829 249.425 325.47 253.163 328.532C254.688 329.783 256.976 332.644 256.917 334.689C256.873 337.267 253.713 339.584 251.741 340.721C248.107 342.787 243.9 343.777 239.542 344.261Z" fill="#F8A17A"/>
<path d="M266.266 438.193C269.312 443.088 273.18 447.652 276.237 452.008C277.615 453.972 278.993 455.935 280.497 457.801C282.938 460.727 285.534 463.521 288.272 466.171L294.134 472.078C295.224 473.166 296.314 474.254 297.763 474.7C299.485 475.244 301.337 474.76 303.075 474.281C309.564 472.481 315.721 472.334 315.884 464.094C315.988 458.867 314.026 452.955 309.619 449.996C304.508 446.569 298.934 443.986 294.107 440.119C289.639 436.54 285.886 432.194 282.066 427.957C279.021 424.574 274.918 418.814 270.194 417.786C268.26 417.362 264.615 417.367 263.024 418.662C261.025 420.293 261.155 424.215 261.493 426.456C262.12 430.568 263.95 434.473 266.266 438.193Z" fill="#F8A17A"/>
<path d="M219.318 345.175C214.463 344.131 208.361 342.396 205.424 338.398C203.174 335.341 202.629 331.551 203.087 327.781C203.534 324.105 206.748 321.526 210.235 320.248C202.155 314.809 194.114 313.819 185.974 315.897C185.069 316.13 184.191 316.454 183.353 316.865C172.102 322.342 177.501 336.206 185.581 341.814C189.283 344.363 193.592 345.893 198.074 346.252C201.676 346.546 204.111 346.421 207.718 346.404C212.071 346.388 214.343 345.605 219.318 345.175Z" fill="#D74034"/>
<path d="M277.691 454.195C281.505 457.349 286.67 461.048 291.634 460.869C295.447 460.733 298.749 458.813 301.441 456.115C304.132 453.417 304.083 449.365 302.923 445.846C312.185 448.799 317.976 454.483 321.387 462.163C321.766 463.016 322.058 463.906 322.259 464.817C324.923 477.022 310.681 481.395 301.266 478.545C296.969 477.225 293.094 474.8 290.032 471.513C287.569 468.875 286.158 466.89 283.93 464.056C281.233 460.613 280.464 458.356 277.691 454.195Z" fill="#D74034"/>
<path d="M269.911 391.994C272.199 400.697 274.515 409.497 277.195 418.053C277.244 418.221 277.304 418.39 277.364 418.558C278.617 422.105 280.143 425.548 281.352 429.116C282.136 431.38 282.787 433.689 283.303 436.028C283.541 437.128 283.723 438.239 283.848 439.357C283.965 439.874 283.996 440.407 283.94 440.934C283.813 441.225 283.628 441.487 283.398 441.705C283.168 441.924 282.897 442.095 282.6 442.207C282.054 442.428 281.473 442.548 280.884 442.561C278.541 442.691 276.236 442.017 274.024 441.234C272.659 440.748 271.311 440.218 269.982 439.645C268.679 439.16 267.423 438.559 266.228 437.851C265.719 437.407 265.282 436.888 264.931 436.311C264.506 435.767 264.087 435.18 263.672 434.609C262.839 433.467 262.038 432.308 261.242 431.133C257.641 425.781 254.454 420.157 251.397 414.479C248.341 408.801 245.448 403.15 242.359 397.564C227.752 371.114 213.03 343.125 207.195 313.259C205.855 306.362 205.817 298.122 208.791 291.65C216.621 274.648 239.449 278.248 246.014 294.174C256.987 320.776 258.442 350.25 266.141 377.972C267.426 382.563 268.663 387.268 269.911 391.994Z" fill="#F8A17A"/>
<path d="M250.951 413.642C248.063 408.257 245.279 402.829 242.37 397.558C227.757 371.109 213.041 343.119 207.2 313.254C205.866 306.357 205.827 298.117 208.802 291.645C216.632 274.642 239.455 278.237 246.025 294.168C256.998 320.77 258.453 350.244 266.152 377.967C267.437 382.596 268.674 387.295 269.922 392.027C271.012 396.09 272.063 400.185 273.191 404.238" fill="#0B2D4E"/>
<path d="M257.955 425.728C251.241 421.832 245.354 416.676 238.81 412.503C231.529 407.861 223.356 404.438 214.776 403.355C206.195 402.273 197.19 403.631 189.705 407.941C178.394 414.457 171.611 427.168 170.066 440.084C169.465 445.1 169.574 450.241 170.934 455.102C174.188 466.733 184.563 475.611 196.225 478.965C202.569 480.789 209.233 481.161 215.827 481.523C247.397 483.249 279.308 484.955 310.417 479.349C314.937 478.534 319.509 477.537 323.5 475.28C327.492 473.023 330.874 469.299 331.671 464.803C332.192 461.878 331.589 458.835 330.534 456.049C327.967 449.271 322.771 443.676 316.648 439.747C310.525 435.818 303.504 433.477 296.391 431.923C289.813 430.489 284.334 430.142 277.815 430.976C270.946 431.87 263.788 429.112 257.955 425.728Z" fill="#E2881B"/>
<path d="M349 442.299C343.484 441.657 337.903 441.815 332.432 442.767C331.408 442.947 330.347 443.173 329.54 443.825C328.339 444.797 328.001 446.46 327.833 447.99C327.329 452.474 327.601 457.011 328.638 461.403C329.863 466.538 332.228 465.351 335.49 462.285C341.431 456.704 346.046 449.877 349 442.299Z" fill="#E2881B"/>
<path d="M289.98 408.3C292.325 413.306 293.926 418.624 294.734 424.087C294.884 425.107 295.001 426.177 294.634 427.147C294.081 428.587 292.599 429.427 291.19 430.073C287.067 431.955 282.65 433.122 278.131 433.523C272.842 433.979 273.233 431.373 275.135 427.329C278.6 419.968 283.671 413.468 289.98 408.3Z" fill="#E2881B"/>
<path d="M276.268 479.4C270.654 478.465 264.97 477.241 260.043 474.403C255.116 471.565 247.431 458.396 252.28 446.736C256.93 435.542 265.582 431.835 268.138 431.271C281.17 428.368 290.324 439.133 303.34 442.117C309.875 443.616 316.663 446.147 320.564 451.57C322.262 453.936 323.297 456.705 324.095 459.501C325.211 463.422 325.88 467.652 325.106 471.709C324.383 475.491 323.168 476.674 319.671 477.77C310.766 480.583 301.631 481.556 292.309 481.153C286.931 480.894 281.574 480.309 276.268 479.4Z" fill="#BB7426"/>
<path d="M313.741 425.314C318.491 426.359 323.709 430.98 327.103 434.447C330.933 438.364 333.073 443.708 333.762 449.129C334.452 454.55 333.779 460.061 332.573 465.393C332.083 467.556 331.471 469.769 330.086 471.508C327.999 474.129 321.735 477.458 318.443 478.15C299.483 482.121 293.961 482.355 282.364 477.907C275.392 475.234 267.112 469.41 259.851 456.44C256.82 451.022 256.871 443.965 260.35 438.821C264.667 432.443 273.422 427.091 281.042 425.791C291.527 424.004 303.222 422.994 313.741 425.314Z" fill="#E2881B"/>
<path d="M299.733 453.138C300.134 453.537 300.448 454.076 300.395 454.638C300.33 455.064 300.128 455.458 299.819 455.76C298.911 456.736 297.559 457.175 296.246 457.412C294.932 457.648 293.574 457.719 292.304 458.141C291.655 456.66 291.151 455.12 290.799 453.543C290.621 452.882 290.561 452.195 290.623 451.514C290.715 450.837 291.043 449.963 291.64 449.616C292.292 449.232 294.469 448.972 295.514 450.561C295.865 451.092 296.212 451.57 296.248 452.189C297.429 451.833 298.863 452.279 299.733 453.138Z" fill="#593E39"/>
<path d="M281.431 461.019C281.487 460.969 281.561 460.942 281.636 460.944C281.712 460.947 281.783 460.978 281.836 461.031C283.081 462.168 284.746 462.975 286.461 462.912C288.353 462.845 289.902 461.6 290.959 460.137C291.037 460.028 291.113 459.917 291.186 459.807C291.211 459.742 291.234 459.675 291.26 459.61C291.746 458.34 292.359 457.122 293.091 455.974C293.288 455.664 293.78 455.961 293.58 456.272C293.471 456.446 293.37 456.621 293.257 456.799C293.297 456.846 293.321 456.903 293.327 456.964C293.333 457.025 293.32 457.086 293.29 457.14C292.83 458.143 292.304 459.115 291.716 460.049C291.403 460.896 291.152 461.764 290.963 462.647C290.84 463.157 290.799 463.683 290.841 464.206C290.912 464.706 291.057 465.193 291.272 465.65C292.169 467.684 293.743 469.348 295.731 470.361C295.796 470.4 295.843 470.464 295.861 470.538C295.879 470.612 295.866 470.69 295.826 470.755C295.786 470.82 295.722 470.866 295.648 470.884C295.574 470.902 295.495 470.889 295.43 470.85C293.469 469.838 291.888 468.226 290.919 466.252C290.667 465.759 290.474 465.237 290.345 464.699C290.234 464.157 290.222 463.6 290.31 463.054C290.396 462.49 290.518 461.931 290.675 461.382C290.311 461.775 289.908 462.13 289.471 462.442C288.672 463.014 287.736 463.366 286.757 463.464C285.849 463.537 284.936 463.403 284.088 463.073C283.102 462.697 282.198 462.137 281.424 461.422C281.373 461.367 281.344 461.294 281.346 461.219C281.347 461.144 281.377 461.072 281.431 461.019Z" fill="#593E39"/>
<path d="M307.37 460.764C308.421 462.58 310.411 463.767 312.496 464.087C314.582 464.406 316.743 463.915 318.615 462.952C320.4 462.03 322.038 460.555 322.504 458.609C322.042 459.284 321.243 459.643 320.472 459.917C317.861 460.839 314.897 461.132 312.36 460.028C309.823 458.925 307.901 456.166 308.41 453.457C308.236 454.398 306.991 455.547 306.729 456.651C306.42 458.053 306.648 459.52 307.37 460.764Z" fill="#593E39"/>
<path d="M274.917 440.009C275.684 441.961 277.468 443.432 279.48 444.061C281.492 444.69 283.703 444.529 285.7 443.852C287.606 443.21 289.448 441.996 290.205 440.142C289.645 440.742 288.802 440.978 287.995 441.131C285.275 441.651 282.301 441.497 279.961 440.025C277.622 438.554 276.146 435.538 277.054 432.936C276.739 433.841 275.333 434.788 274.914 435.841C274.394 437.182 274.395 438.668 274.917 440.009Z" fill="#593E39"/>
<path d="M326.435 435.448C326.588 435.03 326.74 434.612 326.855 434.176L327.093 434.418C328.351 435.712 329.443 437.156 330.345 438.717C328.785 440.78 326.582 442.746 324.94 444.209C322.965 445.975 320.741 447.446 318.34 448.575C322.567 445.488 324.627 440.339 326.435 435.448Z" fill="#BB7426"/>
<path d="M309.778 446.736C313.388 441.315 314.233 434.439 317.804 428.995C318.13 428.497 318.481 428.004 318.802 427.498C320.936 428.862 322.936 430.422 324.776 432.157C318.411 435.147 315.548 442.719 309.778 446.736Z" fill="#BB7426"/>
<path d="M309.972 424.602C311.241 424.785 312.496 425.013 313.737 425.285C314.69 425.506 315.617 425.828 316.501 426.246C316.283 426.441 316.08 426.65 315.893 426.873C314.909 428.033 314.325 429.467 313.707 430.855C311.542 435.709 308.782 440.28 305.49 444.462C306.251 438.339 307.029 432.132 309.257 426.384C309.486 425.784 309.732 425.193 309.972 424.602Z" fill="#BB7426"/>
<path d="M300.584 425.158C300.724 424.748 300.876 424.342 301.04 423.939C302.592 423.956 304.137 424.016 305.665 424.129C302.961 428.069 300.915 432.417 299.607 437.005C299.268 433.03 299.327 428.944 300.584 425.158Z" fill="#BB7426"/>
<path d="M289.381 416.842C289.294 416.509 289.189 416.154 288.914 415.947C288.519 415.652 287.949 415.795 287.52 416.039C286.57 416.585 285.933 417.527 285.353 418.453C283.715 421.069 282.27 423.799 281.027 426.622C281.103 426.451 282.669 426.345 282.902 426.309C283.571 426.2 284.243 426.1 284.914 426.004C286.259 425.814 287.606 425.651 288.956 425.506C289.797 425.417 290.585 425.331 290.774 424.378C290.97 423.391 290.564 422.192 290.375 421.243C290.087 419.763 289.756 418.296 289.381 416.842Z" fill="#E5CAC6"/>
<path d="M343.005 447.672C339.309 447.484 335.603 447.633 331.934 448.115C333.052 452.262 333.088 456.81 331.875 460.944C333.941 459.359 335.68 457.037 337.34 455.031C338.324 453.836 339.278 452.615 340.22 451.386C340.552 450.933 342.553 447.649 343.005 447.672Z" fill="#E5CAC6"/>
<path d="M213.1 424.416C217.393 427.235 220.729 431.388 222.858 436.044C224.987 440.7 225.94 445.844 225.961 450.958C226.006 453.201 225.769 455.442 225.254 457.627C224.016 462.528 220.935 466.726 218.528 471.18C223.842 467.659 226.589 461.437 228.699 455.445C230.932 449.106 232.771 442.178 230.801 435.756C228.937 429.695 223.821 424.992 217.99 422.432C212.159 419.872 206.75 417.774 200.375 417.797C198.323 417.797 193.405 419.44 192.631 421.849C193.438 422.085 194.554 421.477 195.364 421.222C196.995 420.704 198.517 420.344 200.247 420.386C204.823 420.522 209.273 421.917 213.1 424.416Z" fill="#CE781B"/>
<path d="M166.667 465.786C169.769 474.727 176.946 482.048 185.564 486.012C199.511 492.414 215.728 490.209 230.907 487.876C256.24 483.985 282.921 480.234 306.888 489.27C307.756 489.599 308.637 489.945 309.564 490.019C313.209 490.307 315.885 485.985 315.145 482.424C314.405 478.863 311.412 476.213 308.305 474.296C301.103 469.849 292.557 467.93 284.092 467.504C275.627 467.077 267.158 468.072 258.742 469.065L232.439 472.16C222.602 473.32 212.638 474.478 202.824 473.132C193.009 471.786 183.206 467.635 177.061 459.911C171.352 452.73 169.416 443.079 170.871 434.142C169.868 439.288 167.144 443.486 165.895 448.521C164.488 454.231 164.756 460.222 166.667 465.786Z" fill="#D78521"/>
</svg>
