<svg width="48" height="48" viewBox="0 0 48 48" fill="none" xmlns="http://www.w3.org/2000/svg">
<path d="M33.6588 41.983V39.8842H33.5861C32.331 41.4344 30.6925 42.2095 28.6706 42.2095C27.0988 42.184 25.6795 41.5927 24.413 40.4355C23.0367 39.3031 22.3362 37.6301 22.3114 35.4164V33.0156C21.8707 33.3595 21.4027 33.6668 20.9122 33.9344C19.7897 34.5749 18.4908 34.9085 17.0152 34.9352C14.774 34.9352 12.8081 34.1467 11.1175 32.5698C9.36092 30.9929 8.4599 28.4408 8.41447 24.9134C8.46354 21.3472 9.36516 18.7635 11.1193 17.1624C12.8154 15.5855 14.784 14.8104 17.0252 14.837C18.4995 14.8625 19.7973 15.177 20.9185 15.7805C21.2202 15.946 20.9394 15.7495 21.2202 15.946L19.5783 19.2466C19.0332 19.0201 17.8129 18.7326 17.166 18.7671C14.0705 18.9345 12.2769 20.7686 12.2278 24.9134C12.2805 29.0345 13.7343 30.7676 17.1669 31.0041C18.8805 31.1206 19.8991 30.4174 20.8013 29.2529C20.8295 29.2165 20.8567 29.1774 20.8849 29.1401C21.9652 27.2387 22.2478 24.6068 22.3087 23.8135V0C9.84369 0.867898 0 11.2672 0 23.9691C0.00272578 37.2405 10.7468 47.9982 24.0014 47.9982C27.3263 48.0024 30.6155 47.3121 33.6588 45.9713V41.983Z" fill="#88B14B"/>
<path d="M48 23.9692C48 11.4147 38.3825 1.10908 26.122 0.034668V34.0592C26.122 35.385 26.4818 36.42 27.2014 37.1641C27.9083 37.9095 28.8102 38.2822 29.9072 38.2822C31.0042 38.2822 31.9004 37.9101 32.5957 37.1659C33.3032 36.4218 33.657 35.3868 33.657 34.061V22.3617H37.4676V43.8599C40.7135 41.6592 43.3709 38.6952 45.2071 35.2275C47.0433 31.7598 48.0023 27.8941 48 23.9692Z" fill="#88B14B"/>
</svg>
